# xmcd
#
# Track frame offsets: 
#        150
#        15684
#        31998
#        46752
#        61841
#        78378
#        96692
#        111891
#        127090
#
# Disc length: 1903 seconds
#
# Revision: 0
# Processed by: cddbd v1.5.2PL0 Copyright (c) Steve Scherf et al.
# Submitted via: ExactAudioCopy v1.3
#
DISCID=73076d09
DTITLE=Woods and Taylor - Rooted In The Blues
DYEAR=2019
DGENRE=Blues
TTITLE0=Get Up
TTITLE1=Deep River Blues
TTITLE2=Worn Out Shoes
TTITLE3=Still Got the Blues For You
TTITLE4=No Ringy Ding
TTITLE5=Blue Barracuda
TTITLE6=Better Be Better
TTITLE7=Forgotten
TTITLE8=Good Life
EXTD=
EXTT0=
EXTT1=
EXTT2=
EXTT3=
EXTT4=
EXTT5=
EXTT6=
EXTT7=
EXTT8=
PLAYORDER=
